<svg width="203" height="83" viewBox="0 0 203 83" fill="none" xmlns="http://www.w3.org/2000/svg">
<path d="M40.6729 0.101074V13.5063H40.7744C40.9101 13.5063 41.0451 13.5021 41.1377 13.5015C41.2392 13.5008 41.3105 13.5049 41.3623 13.5181C41.41 13.5302 41.432 13.5474 41.4463 13.5708C41.4637 13.5992 41.4785 13.6507 41.4785 13.7485V31.3804H42.5156V47.6509H43.7832V82.6226H40.6455C40.6449 79.3077 40.6164 76.0741 40.5879 72.8481C40.5591 69.5889 40.5303 66.3371 40.5303 63.0171V43.3101C40.5303 41.598 40.5015 39.974 40.4727 38.3589C40.4438 36.7436 40.415 35.1366 40.415 33.4565V0.101074H40.6729Z" fill="#FEFEFE" stroke="#FEFEFE" stroke-width="0.203478"/>
<path d="M46.3184 4.11163V13.3929H47.124V28.0579H47.8154V44.3284H49.543V76.8948H46.5352C46.4332 76.8948 46.3786 76.8714 46.3477 76.845C46.3167 76.8185 46.2943 76.7757 46.2812 76.7054C46.268 76.6337 46.2667 76.5442 46.2705 76.4368C46.2741 76.3345 46.2822 76.2089 46.2842 76.0872C46.3753 70.3954 46.1758 64.666 46.1758 59.0071L46.0605 4.11163H46.3184Z" fill="#FEFEFE" stroke="#FEFEFE" stroke-width="0.203478"/>
<path d="M34.917 3.76721V15.9127H35.7227V32.2965H36.4141V50.5153H38.0264V79.4147H34.8896V50.5153H35.2354V42.5201H34.6592V3.76721H34.917Z" fill="#FEFEFE" stroke="#FEFEFE" stroke-width="0.203478"/>
<path d="M51.959 14.3085H52.0605C52.1969 14.3085 52.3307 14.3042 52.4238 14.3036C52.5253 14.3029 52.5967 14.3062 52.6484 14.3192C52.6959 14.3312 52.7182 14.3487 52.7324 14.3719C52.7498 14.4003 52.7646 14.4525 52.7646 14.5507V28.0575H53.4561V44.6708H53.5576C53.9013 44.6708 54.2038 44.659 54.4619 44.6493C54.7213 44.6395 54.9325 44.6324 55.1006 44.6415C55.2717 44.6507 55.3797 44.676 55.4434 44.7177C55.4961 44.7523 55.5293 44.8057 55.5293 44.9139V70.8212H52.2773V65.5497H51.8164V38.1542C51.8164 36.6893 51.8501 33.3677 51.8545 30.1444C51.8584 27.3302 51.8399 24.5903 51.7568 23.2548L51.7178 22.7723L51.7012 9.28015V9.27917C51.6995 8.98487 51.6893 8.75284 51.6846 8.57507C51.6798 8.39299 51.6811 8.27404 51.6982 8.19226C51.7137 8.11872 51.7392 8.0873 51.7793 8.06531C51.8168 8.0449 51.8727 8.03201 51.959 8.02039V14.3085Z" fill="#FEFEFE" stroke="#FEFEFE" stroke-width="0.203478"/>
<path d="M29.0449 9.18878C29.0882 9.19914 29.107 9.20716 29.1172 9.21417C29.1244 9.21919 29.1504 9.23552 29.1504 9.39581V16.7151H29.957V33.7874H30.418V50.7444H32.1455V74.1439C31.1998 74.1451 30.5117 74.164 30.0195 74.1683C29.7637 74.1705 29.5609 74.1687 29.4004 74.1595C29.2388 74.1502 29.126 74.1334 29.0469 74.1077C28.97 74.0828 28.9317 74.0518 28.9092 74.0179C28.885 73.9814 28.8695 73.9275 28.8643 73.8392C28.859 73.7504 28.865 73.6397 28.873 73.4964C28.881 73.3551 28.8907 73.1862 28.8926 72.9876V50.7318C29.0083 50.7187 29.1062 50.7019 29.1816 50.6605C29.2893 50.6013 29.3404 50.5071 29.3623 50.3851C29.3827 50.271 29.3805 50.1187 29.374 49.9251C29.3674 49.7274 29.3556 49.4765 29.3545 49.1526V35.7601H29.0088V9.17999C29.0225 9.18302 29.0347 9.18634 29.0449 9.18878Z" fill="#FEFEFE" stroke="#FEFEFE" stroke-width="0.203478"/>
<path d="M58.6377 15.7979V27.9434H59.6748V45.8174H60.9424V65.3087C60.9424 65.4371 60.9205 65.486 60.8984 65.5079C60.876 65.5299 60.8267 65.5508 60.6982 65.5508H57.6895V15.7979H58.6377Z" fill="#FEFEFE" stroke="#FEFEFE" stroke-width="0.203478"/>
<path d="M23.4009 14.7672V16.7155H23.9771V29.5485H24.8989V50.2867H26.6265V68.7594H23.2593V14.7672H23.4009Z" fill="#FEFEFE" stroke="#FEFEFE" stroke-width="0.203478"/>
<path d="M13.2578 42.6102H15.2158V56.9589H11.5029V26.4247C11.6073 26.3822 11.7227 26.3108 11.8408 26.2245C11.9911 26.1146 12.1582 25.9744 12.332 25.8251C12.6305 25.5687 12.9513 25.2866 13.2578 25.0624V42.6102Z" fill="#FEFEFE" stroke="#FEFEFE" stroke-width="0.203478"/>
<path d="M17.3804 21.3082C17.3768 21.0035 17.3395 20.6812 17.4429 20.3863C17.5332 20.1288 17.7372 19.8855 18.2153 19.73V26.9127H18.6753V46.0474H20.0571V62.7886C20.0571 62.8452 20.0451 62.8849 20.0259 62.9146C20.0063 62.9446 19.9746 62.972 19.9253 62.9957C19.8221 63.0452 19.6585 63.0702 19.4282 63.0767C19.2009 63.0831 18.9231 63.0715 18.5991 63.0582C18.2765 63.0449 17.9102 63.0299 17.5103 63.0298C17.4633 63.0298 17.4281 63.0159 17.3989 62.9908C17.3678 62.9639 17.3377 62.9202 17.312 62.8541C17.2598 62.7195 17.2348 62.5203 17.2271 62.275C17.2194 62.0318 17.2289 61.7538 17.2407 61.4664C17.2525 61.1806 17.2661 60.8852 17.2661 60.6119L17.3804 21.3091V21.3082Z" fill="#FEFEFE" stroke="#FEFEFE" stroke-width="0.203478"/>
<path d="M7.72705 30.9239C7.72945 32.4792 7.75712 33.9607 7.78467 35.4327C7.8135 36.9734 7.84229 38.5043 7.84229 40.1016V40.2032H8.99463V51.1143H5.85693V41.0186C5.85693 40.2747 5.88564 39.6335 5.91455 38.9971C5.94345 38.361 5.97248 37.7293 5.97217 37.0079C5.97155 35.6374 5.937 34.2347 5.9624 32.8751C5.97057 32.4463 6.04898 32.297 6.16357 32.1905C6.22807 32.1306 6.30656 32.0817 6.41357 32.0098C6.51786 31.9398 6.63911 31.8528 6.7749 31.7247L7.72705 30.9239Z" fill="#FEFEFE" stroke="#FEFEFE" stroke-width="0.203478"/>
<path d="M1.85645 40.2039H3.23926V45.6151H0.216797V40.6746C0.216794 40.1497 0.188012 39.7434 0.15918 39.3426C0.131331 38.9555 0.103404 38.5735 0.101562 38.0906C0.352825 37.9127 0.707246 37.5898 1.0459 37.2986C1.22855 37.1416 1.40891 36.9922 1.57324 36.8748C1.67879 36.7994 1.77457 36.7415 1.85645 36.701V40.2039Z" fill="#FEFEFE" stroke="#FEFEFE" stroke-width="0.203478"/>
<mask id="path-12-inside-1_219_4798" fill="white">
<path fill-rule="evenodd" clip-rule="evenodd" d="M169.709 34.577C171.467 34.577 172.722 34.7608 173.933 36.183C176.68 39.4122 174.805 46.0125 169.143 45.0196C168.092 44.8352 167.269 44.3362 166.656 43.7226C164.892 41.9569 164.736 38.7671 166.054 36.6727C166.801 35.4867 168.254 34.577 169.709 34.577H169.709ZM125.433 44.2302H124.751C122.219 44.2302 120.202 42.1437 120.202 39.6299C120.202 37.9462 120.363 36.9496 121.585 35.7272C123.39 33.9202 126.99 34.0115 128.752 35.8006C130.005 37.0729 130.375 39.3425 129.708 41.2433C129.456 41.9606 129.231 42.2288 128.813 42.7673C128.627 43.0065 128.408 43.1521 128.174 43.3371C127.937 43.524 127.679 43.6449 127.405 43.7793C126.899 44.0279 126.188 44.2302 125.432 44.2302H125.433ZM99.1877 37.9894C99.3706 35.5459 101.213 34.1712 103.825 34.1595C106.558 34.1478 108.198 35.4688 108.449 37.9894H99.1871H99.1877ZM115.878 32.6164C115.745 32.934 115.218 33.5218 114.957 33.9603C114.736 34.3328 114.387 35.1734 114.216 35.3954C113.58 34.2551 113.642 33.758 112.482 32.374C112.222 32.0644 111.594 31.4761 111.274 31.2405C108.67 29.3169 105.637 28.5688 102.037 28.9592C92.3783 30.0076 90.3863 40.2041 93.8521 45.8553C96.5261 50.2149 102.365 51.5261 107.404 50.5023C110.382 49.8973 111.636 48.9969 113.69 47.4353C113.531 47.1683 113.048 46.6453 112.836 46.4276L110.439 43.8354C110.269 43.6739 110.403 43.7633 110.194 43.6621C109.943 43.7836 109.767 43.9483 109.53 44.0994C106.43 46.0822 99.9788 46.1834 99.14 41.8206L113.757 41.8397C113.893 42.0864 114.077 42.9399 114.196 43.2674C114.986 45.4427 116.118 46.2913 116.332 46.7193C116.577 46.8778 116.698 47.0721 116.931 47.2589C117.159 47.4421 117.324 47.5704 117.579 47.7455L119.039 48.6306C120.341 49.275 122 49.761 123.618 49.8831C124.704 49.9652 125.927 49.9121 126.945 50.1181C128.185 50.3697 129.226 51.0062 129.626 52.1262C130.118 53.5034 129.616 54.8873 128.781 55.5552C126.694 57.2229 121.696 57.3432 120.59 54.4032C120.31 53.6582 120.278 53.3806 120.278 52.376H113.758C113.758 55.509 114.115 57.3796 116.391 59.5609C116.975 60.1209 117.65 60.5261 118.358 60.9227C122.419 63.1941 129.382 62.7192 133.091 60.2961C134.833 59.1588 136.027 57.4844 136.549 55.4399C137.442 51.9393 135.817 48.6731 132.838 47.1226C132.584 46.99 132.484 47.0011 132.332 46.7958C132.974 46.6249 133.888 45.6745 134.326 45.159C134.543 44.9042 134.663 44.7846 134.878 44.5009C136.957 41.757 137.061 38.0024 135.518 35.0291C135.336 34.6794 134.749 33.7925 134.455 33.597C135.025 32.7509 135.799 32.0595 136.437 31.2701C136.579 31.0956 136.963 30.6108 137.109 30.5047V50.3395H143.856C143.856 48.4289 143.856 46.5182 143.856 44.6076C143.856 42.8308 143.725 40.5143 143.86 38.8041C143.994 37.0908 144.789 35.7821 145.973 35.0988C146.682 34.6893 147.208 34.582 148.33 34.5764C150.057 34.5678 151.237 35.4762 151.724 37.0076C152.011 37.9099 151.968 38.4853 151.968 39.6305C151.968 42.9991 152.023 46.3727 151.964 49.7407C151.95 50.5375 152.057 50.3445 152.878 50.3395C154.823 50.3278 156.771 50.3395 158.716 50.3395L158.765 42.6741C158.779 42.7118 158.815 42.8092 158.825 42.8413C159.062 43.6381 159.282 44.4072 159.605 45.1577C159.788 45.5851 160.014 45.9108 160.228 46.2715C162.439 49.9806 166.952 51.4083 171.181 50.4462C172.876 50.0608 174.44 49.1178 175.547 47.851C176.236 50.7916 175.145 50.3395 177.821 50.3395C179.028 50.3395 180.265 50.4012 181.47 50.3494C181.997 50.3266 181.846 50.0793 181.84 49.5106C181.778 43.1034 181.818 36.6863 181.839 30.2784C181.84 30.0921 181.857 29.8405 181.849 29.6654C181.824 29.0967 181.535 29.2978 180.399 29.2978L176.759 29.2972C176.14 29.291 175.988 29.1393 175.905 29.6555C175.801 30.316 175.698 31.0604 175.546 31.7111C175.275 31.531 174.976 31.1874 174.66 30.9334C173.641 30.1149 172.516 29.5315 171.166 29.2053C167.443 28.3073 163.257 29.4187 160.956 32.3568C160.799 32.5578 160.739 32.6096 160.594 32.8261C159.864 33.919 158.791 35.8191 158.791 37.1414H158.639C158.639 33.7241 156.494 30.4776 153.278 29.352C150.362 28.332 146.642 28.8957 144.256 30.9038C143.937 31.172 143.734 31.489 143.4 31.7117C143.227 31.3533 143.07 29.8325 142.945 29.2984L137.94 29.2978C136.967 29.2885 137.107 29.1769 137.107 30.1279C136.523 29.8202 134.116 28.0267 133.522 27.5845L132.331 26.734C132.007 27.2144 130.202 29.5019 129.829 29.7505C129.016 29.5624 128.593 29.1935 127.143 28.953C125.468 28.6755 123.315 28.7766 121.792 29.1461C119.96 29.5907 118.416 30.2716 117.073 31.4656C116.835 31.6771 116.701 31.7592 116.466 31.9935C116.308 32.1526 115.996 32.5313 115.877 32.6164H115.878Z"/>
</mask>
<path fill-rule="evenodd" clip-rule="evenodd" d="M169.709 34.577C171.467 34.577 172.722 34.7608 173.933 36.183C176.68 39.4122 174.805 46.0125 169.143 45.0196C168.092 44.8352 167.269 44.3362 166.656 43.7226C164.892 41.9569 164.736 38.7671 166.054 36.6727C166.801 35.4867 168.254 34.577 169.709 34.577H169.709ZM125.433 44.2302H124.751C122.219 44.2302 120.202 42.1437 120.202 39.6299C120.202 37.9462 120.363 36.9496 121.585 35.7272C123.39 33.9202 126.99 34.0115 128.752 35.8006C130.005 37.0729 130.375 39.3425 129.708 41.2433C129.456 41.9606 129.231 42.2288 128.813 42.7673C128.627 43.0065 128.408 43.1521 128.174 43.3371C127.937 43.524 127.679 43.6449 127.405 43.7793C126.899 44.0279 126.188 44.2302 125.432 44.2302H125.433ZM99.1877 37.9894C99.3706 35.5459 101.213 34.1712 103.825 34.1595C106.558 34.1478 108.198 35.4688 108.449 37.9894H99.1871H99.1877ZM115.878 32.6164C115.745 32.934 115.218 33.5218 114.957 33.9603C114.736 34.3328 114.387 35.1734 114.216 35.3954C113.58 34.2551 113.642 33.758 112.482 32.374C112.222 32.0644 111.594 31.4761 111.274 31.2405C108.67 29.3169 105.637 28.5688 102.037 28.9592C92.3783 30.0076 90.3863 40.2041 93.8521 45.8553C96.5261 50.2149 102.365 51.5261 107.404 50.5023C110.382 49.8973 111.636 48.9969 113.69 47.4353C113.531 47.1683 113.048 46.6453 112.836 46.4276L110.439 43.8354C110.269 43.6739 110.403 43.7633 110.194 43.6621C109.943 43.7836 109.767 43.9483 109.53 44.0994C106.43 46.0822 99.9788 46.1834 99.14 41.8206L113.757 41.8397C113.893 42.0864 114.077 42.9399 114.196 43.2674C114.986 45.4427 116.118 46.2913 116.332 46.7193C116.577 46.8778 116.698 47.0721 116.931 47.2589C117.159 47.4421 117.324 47.5704 117.579 47.7455L119.039 48.6306C120.341 49.275 122 49.761 123.618 49.8831C124.704 49.9652 125.927 49.9121 126.945 50.1181C128.185 50.3697 129.226 51.0062 129.626 52.1262C130.118 53.5034 129.616 54.8873 128.781 55.5552C126.694 57.2229 121.696 57.3432 120.59 54.4032C120.31 53.6582 120.278 53.3806 120.278 52.376H113.758C113.758 55.509 114.115 57.3796 116.391 59.5609C116.975 60.1209 117.65 60.5261 118.358 60.9227C122.419 63.1941 129.382 62.7192 133.091 60.2961C134.833 59.1588 136.027 57.4844 136.549 55.4399C137.442 51.9393 135.817 48.6731 132.838 47.1226C132.584 46.99 132.484 47.0011 132.332 46.7958C132.974 46.6249 133.888 45.6745 134.326 45.159C134.543 44.9042 134.663 44.7846 134.878 44.5009C136.957 41.757 137.061 38.0024 135.518 35.0291C135.336 34.6794 134.749 33.7925 134.455 33.597C135.025 32.7509 135.799 32.0595 136.437 31.2701C136.579 31.0956 136.963 30.6108 137.109 30.5047V50.3395H143.856C143.856 48.4289 143.856 46.5182 143.856 44.6076C143.856 42.8308 143.725 40.5143 143.86 38.8041C143.994 37.0908 144.789 35.7821 145.973 35.0988C146.682 34.6893 147.208 34.582 148.33 34.5764C150.057 34.5678 151.237 35.4762 151.724 37.0076C152.011 37.9099 151.968 38.4853 151.968 39.6305C151.968 42.9991 152.023 46.3727 151.964 49.7407C151.95 50.5375 152.057 50.3445 152.878 50.3395C154.823 50.3278 156.771 50.3395 158.716 50.3395L158.765 42.6741C158.779 42.7118 158.815 42.8092 158.825 42.8413C159.062 43.6381 159.282 44.4072 159.605 45.1577C159.788 45.5851 160.014 45.9108 160.228 46.2715C162.439 49.9806 166.952 51.4083 171.181 50.4462C172.876 50.0608 174.44 49.1178 175.547 47.851C176.236 50.7916 175.145 50.3395 177.821 50.3395C179.028 50.3395 180.265 50.4012 181.47 50.3494C181.997 50.3266 181.846 50.0793 181.84 49.5106C181.778 43.1034 181.818 36.6863 181.839 30.2784C181.84 30.0921 181.857 29.8405 181.849 29.6654C181.824 29.0967 181.535 29.2978 180.399 29.2978L176.759 29.2972C176.14 29.291 175.988 29.1393 175.905 29.6555C175.801 30.316 175.698 31.0604 175.546 31.7111C175.275 31.531 174.976 31.1874 174.66 30.9334C173.641 30.1149 172.516 29.5315 171.166 29.2053C167.443 28.3073 163.257 29.4187 160.956 32.3568C160.799 32.5578 160.739 32.6096 160.594 32.8261C159.864 33.919 158.791 35.8191 158.791 37.1414H158.639C158.639 33.7241 156.494 30.4776 153.278 29.352C150.362 28.332 146.642 28.8957 144.256 30.9038C143.937 31.172 143.734 31.489 143.4 31.7117C143.227 31.3533 143.07 29.8325 142.945 29.2984L137.94 29.2978C136.967 29.2885 137.107 29.1769 137.107 30.1279C136.523 29.8202 134.116 28.0267 133.522 27.5845L132.331 26.734C132.007 27.2144 130.202 29.5019 129.829 29.7505C129.016 29.5624 128.593 29.1935 127.143 28.953C125.468 28.6755 123.315 28.7766 121.792 29.1461C119.96 29.5907 118.416 30.2716 117.073 31.4656C116.835 31.6771 116.701 31.7592 116.466 31.9935C116.308 32.1526 115.996 32.5313 115.877 32.6164H115.878Z" fill="#FEFEFE" stroke="#FEFEFE" stroke-width="0.406956" mask="url(#path-12-inside-1_219_4798)"/>
<path d="M86.0679 26.0457C86.2212 26.0606 86.3931 26.0846 86.686 26.0828C88.2325 26.0736 90.0428 26.4884 91.186 26.9138L94.6001 28.6414L93.6001 29.53C93.3474 29.736 93.1821 29.9126 93.0288 30.0925C92.9514 30.1834 92.8792 30.2737 92.8003 30.3679L92.5337 30.6707C92.2948 30.927 92.2566 30.9781 92.0474 31.2595L91.5923 31.8601C91.469 32.0203 91.3012 32.3141 91.1421 32.573C91.0608 32.7052 90.9804 32.8306 90.9067 32.9314C90.8614 32.9934 90.8195 33.0401 90.7856 33.075C90.7041 33.0048 90.5907 32.9341 90.4653 32.8679C90.2887 32.7746 90.072 32.6798 89.8481 32.5906C89.4004 32.4122 88.9141 32.2548 88.6401 32.1853C87.6618 31.9373 87.0389 31.9125 85.854 31.9119C83.1883 31.9104 80.9266 32.9354 79.3872 34.6638C77.848 36.392 77.0371 38.8173 77.2573 41.6042C77.3514 42.7921 77.4788 43.7154 77.7808 44.5837C78.0833 45.4536 78.5584 46.2628 79.3413 47.2263C79.8622 47.868 80.3115 48.2175 80.9751 48.6609C83.4429 50.3079 87.0052 50.4675 89.7563 49.4558C90.6918 49.1115 90.9749 48.9106 91.7485 48.5046C91.8195 48.5743 91.9108 48.675 92.0181 48.8054C92.0839 48.8855 92.155 48.9746 92.2319 49.0701C92.3088 49.1655 92.3912 49.268 92.478 49.3738C92.8249 49.7962 93.2496 50.2834 93.7212 50.6726C94.5456 51.3525 94.865 51.6873 95.8384 52.2693V52.2703L96.104 52.4587C96.0227 52.5301 95.9274 52.6085 95.8247 52.6833L95.4214 52.9724C92.6336 55.0596 89.0038 56.0024 85.4419 55.9236C81.8796 55.8447 78.3954 54.7443 75.8989 52.7585C75.1581 52.1696 74.43 51.5102 73.8462 50.7625C72.2315 48.695 71.4064 47.0122 70.8716 44.3552C70.3585 41.8067 70.4949 39.435 70.9985 37.0681C71.5817 34.3298 72.9128 32.0949 74.8374 30.1804C75.7117 29.3107 76.7505 28.5084 77.9136 27.9314C79.1633 27.3114 80.0015 26.9515 80.894 26.698C81.7874 26.4443 82.7392 26.2952 84.2192 26.1003C84.427 26.0731 84.6423 26.0778 84.8667 26.0818C85.0884 26.0858 85.3198 26.0899 85.5454 26.0583C85.7812 26.0252 85.9184 26.0311 86.0679 26.0457Z" fill="#FEFEFE" stroke="#FEFEFE" stroke-width="0.203478"/>
<path d="M189.697 20.7273V50.1218C189.696 50.2 189.682 50.2172 189.678 50.2205C189.674 50.2247 189.653 50.238 189.571 50.238H183.153V20.7273H189.697Z" fill="#FEFEFE" stroke="#FEFEFE" stroke-width="0.203478"/>
<path d="M196.646 22.7101C197.544 22.7101 198.422 22.9419 199.278 23.4053C200.134 23.8641 200.8 24.5238 201.278 25.3845C201.756 26.2405 201.995 27.1344 201.995 28.066C201.995 28.9883 201.758 29.875 201.285 30.7263C200.817 31.5775 200.157 32.2396 199.306 32.7126C198.459 33.1808 197.573 33.4149 196.646 33.4149C195.719 33.4149 194.83 33.1808 193.978 32.7126C193.132 32.2396 192.472 31.5775 191.999 30.7263C191.526 29.875 191.29 28.9883 191.29 28.066C191.29 27.1344 191.529 26.2405 192.006 25.3845C192.489 24.5238 193.158 23.8641 194.014 23.4053C194.87 22.9419 195.747 22.7101 196.646 22.7101ZM196.646 23.5969C195.894 23.5969 195.161 23.7908 194.447 24.1786C193.737 24.5617 193.182 25.1126 192.78 25.8315C192.378 26.5456 192.177 27.2904 192.177 28.066C192.177 28.8369 192.373 29.5771 192.765 30.2864C193.163 30.9911 193.716 31.5421 194.425 31.9393C195.135 32.3319 195.875 32.5281 196.646 32.5281C197.417 32.5281 198.157 32.3319 198.866 31.9393C199.576 31.5421 200.126 30.9911 200.519 30.2864C200.912 29.5771 201.108 28.8369 201.108 28.066C201.108 27.2904 200.907 26.5456 200.505 25.8315C200.108 25.1126 199.552 24.5617 198.838 24.1786C198.124 23.7908 197.393 23.5969 196.646 23.5969ZM194.298 31.0242V25.2639H196.277C196.953 25.2639 197.443 25.3183 197.745 25.4271C198.048 25.5312 198.289 25.7156 198.469 25.9804C198.649 26.2453 198.738 26.5267 198.738 26.8246C198.738 27.2455 198.587 27.612 198.284 27.9242C197.986 28.2363 197.589 28.4113 197.093 28.4491C197.296 28.5342 197.459 28.6359 197.582 28.7542C197.814 28.9812 198.098 29.3619 198.433 29.8963L199.136 31.0242H198.001L197.49 30.1162C197.088 29.4021 196.764 28.9552 196.518 28.7754C196.348 28.643 196.1 28.5768 195.773 28.5768H195.227V31.0242H194.298ZM195.227 27.7823H196.355C196.894 27.7823 197.261 27.7019 197.454 27.5411C197.653 27.3803 197.752 27.1675 197.752 26.9026C197.752 26.7324 197.705 26.5811 197.611 26.4486C197.516 26.3115 197.384 26.2098 197.213 26.1436C197.048 26.0774 196.738 26.0443 196.284 26.0443H195.227V27.7823Z" fill="#FEFEFE"/>
<path d="M199.278 23.4053L199.132 23.6737L199.133 23.6744L199.278 23.4053ZM201.278 25.3845L201.011 25.5326L201.012 25.5333L201.278 25.3845ZM201.285 30.7263L201.018 30.578L201.018 30.5792L201.285 30.7263ZM199.306 32.7126L199.454 32.9797L199.454 32.9794L199.306 32.7126ZM193.978 32.7126L193.83 32.979L193.831 32.98L193.978 32.7126ZM192.006 25.3845L191.74 25.2353L191.74 25.2358L192.006 25.3845ZM194.014 23.4053L194.158 23.6744L194.159 23.6737L194.014 23.4053ZM194.447 24.1786L194.592 24.4471L194.592 24.4468L194.447 24.1786ZM192.78 25.8315L193.046 25.9812L193.046 25.9804L192.78 25.8315ZM192.765 30.2864L192.498 30.4342L192.499 30.4363L192.765 30.2864ZM194.425 31.9393L194.276 32.2056L194.278 32.2064L194.425 31.9393ZM198.866 31.9393L199.014 32.2064L199.015 32.2056L198.866 31.9393ZM200.519 30.2864L200.786 30.435L200.786 30.4342L200.519 30.2864ZM200.505 25.8315L200.238 25.9791L200.239 25.9812L200.505 25.8315ZM198.838 24.1786L198.692 24.4468L198.693 24.4475L198.838 24.1786ZM194.298 31.0242H193.992V31.3294H194.298V31.0242ZM194.298 25.2639V24.9587H193.992V25.2639H194.298ZM197.745 25.4271L197.642 25.7144L197.646 25.7157L197.745 25.4271ZM198.469 25.9804L198.721 25.8091L198.469 25.9804ZM198.284 27.9242L198.065 27.7117L198.064 27.7134L198.284 27.9242ZM197.093 28.4491L197.069 28.1448L196.975 28.7307L197.093 28.4491ZM197.582 28.7542L197.796 28.5361L197.794 28.5341L197.582 28.7542ZM198.433 29.8963L198.693 29.735L198.692 29.7339L198.433 29.8963ZM199.136 31.0242V31.3294H199.685L199.395 30.8629L199.136 31.0242ZM198.001 31.0242L197.735 31.1738L197.822 31.3294H198.001V31.0242ZM197.49 30.1162L197.756 29.9666L197.756 29.9665L197.49 30.1162ZM196.518 28.7754L196.331 29.0165L196.338 29.0219L196.518 28.7754ZM195.227 28.5768V28.2716H194.922V28.5768H195.227ZM195.227 31.0242V31.3294H195.532V31.0242H195.227ZM195.227 27.7823H194.922V28.0875H195.227V27.7823ZM197.454 27.5411L197.262 27.3039L197.26 27.3062L197.454 27.5411ZM197.611 26.4486L197.359 26.6219L197.362 26.626L197.611 26.4486ZM197.213 26.1436L197.1 26.427L197.103 26.4281L197.213 26.1436ZM195.227 26.0443V25.7391H194.922V26.0443H195.227ZM196.646 22.7101V23.0154C197.489 23.0154 198.317 23.2324 199.132 23.6737L199.278 23.4053L199.423 23.1369C198.526 22.6514 197.599 22.4049 196.646 22.4049V22.7101ZM199.278 23.4053L199.133 23.6744C199.937 24.105 200.562 24.7224 201.011 25.5326L201.278 25.3845L201.545 25.2364C201.039 24.3252 200.33 23.6231 199.422 23.1363L199.278 23.4053ZM201.278 25.3845L201.012 25.5333C201.465 26.3463 201.689 27.1892 201.689 28.066H201.995H202.3C202.3 27.0796 202.046 26.1348 201.545 25.2358L201.278 25.3845ZM201.995 28.066H201.689C201.689 28.9335 201.468 29.7695 201.018 30.578L201.285 30.7263L201.552 30.8745C202.049 29.9805 202.3 29.043 202.3 28.066H201.995ZM201.285 30.7263L201.018 30.5792C200.577 31.38 199.959 32.0007 199.158 32.4458L199.306 32.7126L199.454 32.9794C200.356 32.4786 201.057 31.7751 201.553 30.8734L201.285 30.7263ZM199.306 32.7126L199.158 32.4455C198.355 32.8898 197.519 33.1096 196.646 33.1096V33.4149V33.7201C197.627 33.7201 198.564 33.4717 199.454 32.9797L199.306 32.7126ZM196.646 33.4149V33.1096C195.773 33.1096 194.934 32.8898 194.126 32.4451L193.978 32.7126L193.831 32.98C194.725 33.4717 195.665 33.7201 196.646 33.7201V33.4149ZM193.978 32.7126L194.127 32.4461C193.331 32.001 192.712 31.3799 192.266 30.578L191.999 30.7263L191.732 30.8745C192.233 31.7751 192.933 32.4783 193.83 32.979L193.978 32.7126ZM191.999 30.7263L192.266 30.578C191.817 29.7695 191.595 28.9335 191.595 28.066H191.29H190.985C190.985 29.043 191.236 29.9805 191.732 30.8745L191.999 30.7263ZM191.29 28.066H191.595C191.595 27.1892 191.819 26.3463 192.273 25.5333L192.006 25.3845L191.74 25.2358C191.238 26.1348 190.985 27.0796 190.985 28.066H191.29ZM192.006 25.3845L192.273 25.5338C192.727 24.7229 193.354 24.1052 194.158 23.6744L194.014 23.4053L193.87 23.1363C192.962 23.623 192.25 24.3247 191.74 25.2353L192.006 25.3845ZM194.014 23.4053L194.159 23.6737C194.974 23.2324 195.802 23.0154 196.646 23.0154V22.7101V22.4049C195.692 22.4049 194.765 22.6514 193.869 23.1369L194.014 23.4053ZM196.646 23.5969V23.2917C195.839 23.2917 195.056 23.5003 194.301 23.9104L194.447 24.1786L194.592 24.4468C195.265 24.0813 195.949 23.9021 196.646 23.9021V23.5969ZM194.447 24.1786L194.302 23.91C193.54 24.3212 192.943 24.9142 192.513 25.6825L192.78 25.8315L193.046 25.9804C193.42 25.311 193.934 24.8021 194.592 24.4471L194.447 24.1786ZM192.78 25.8315L192.514 25.6817C192.087 26.4389 191.871 27.235 191.871 28.066H192.177H192.482C192.482 27.3459 192.668 26.6523 193.046 25.9812L192.78 25.8315ZM192.177 28.066H191.871C191.871 28.8913 192.082 29.682 192.498 30.4342L192.765 30.2864L193.032 30.1387C192.664 29.4721 192.482 28.7825 192.482 28.066H192.177ZM192.765 30.2864L192.499 30.4363C192.924 31.19 193.518 31.7812 194.276 32.2056L194.425 31.9393L194.574 31.673C193.914 31.303 193.401 30.7922 193.031 30.1366L192.765 30.2864ZM194.425 31.9393L194.278 32.2064C195.03 32.6226 195.82 32.8333 196.646 32.8333V32.5281V32.2229C195.929 32.2229 195.24 32.0411 194.573 31.6723L194.425 31.9393ZM196.646 32.5281V32.8333C197.471 32.8333 198.262 32.6226 199.014 32.2064L198.866 31.9393L198.718 31.6723C198.052 32.0411 197.362 32.2229 196.646 32.2229V32.5281ZM198.866 31.9393L199.015 32.2056C199.774 31.781 200.365 31.1894 200.786 30.435L200.519 30.2864L200.252 30.1379C199.888 30.7928 199.377 31.3031 198.717 31.673L198.866 31.9393ZM200.519 30.2864L200.786 30.4342C201.202 29.682 201.413 28.8913 201.413 28.066H201.108H200.803C200.803 28.7825 200.621 29.4721 200.252 30.1387L200.519 30.2864ZM201.108 28.066H201.413C201.413 27.235 201.197 26.4389 200.771 25.6817L200.505 25.8315L200.239 25.9812C200.617 26.6523 200.803 27.3459 200.803 28.066H201.108ZM200.505 25.8315L200.772 25.6838C200.347 24.9143 199.749 24.3209 198.982 23.9096L198.838 24.1786L198.693 24.4475C199.355 24.8024 199.868 25.3109 200.238 25.9791L200.505 25.8315ZM198.838 24.1786L198.983 23.9104C198.229 23.5005 197.448 23.2917 196.646 23.2917V23.5969V23.9021C197.338 23.9021 198.019 24.0811 198.692 24.4468L198.838 24.1786ZM194.298 31.0242H194.603V25.2639H194.298H193.992V31.0242H194.298ZM194.298 25.2639V25.5692H196.277V25.2639V24.9587H194.298V25.2639ZM196.277 25.2639V25.5692C196.948 25.5692 197.392 25.6246 197.642 25.7143L197.745 25.4271L197.849 25.1399C197.493 25.0121 196.958 24.9587 196.277 24.9587V25.2639ZM197.745 25.4271L197.646 25.7157C197.886 25.7983 198.074 25.9416 198.216 26.1518L198.469 25.9804L198.721 25.8091C198.505 25.4896 198.21 25.264 197.845 25.1385L197.745 25.4271ZM198.469 25.9804L198.216 26.1518C198.364 26.37 198.433 26.5924 198.433 26.8246H198.738H199.044C199.044 26.461 198.933 26.1205 198.721 25.8091L198.469 25.9804ZM198.738 26.8246H198.433C198.433 27.1633 198.315 27.4544 198.065 27.7117L198.284 27.9242L198.504 28.1366C198.859 27.7697 199.044 27.3277 199.044 26.8246H198.738ZM198.284 27.9242L198.064 27.7134C197.826 27.9627 197.503 28.1117 197.069 28.1448L197.093 28.4491L197.116 28.7535C197.675 28.7108 198.147 28.5099 198.505 28.1349L198.284 27.9242ZM197.093 28.4491L196.975 28.7307C197.153 28.8053 197.281 28.8885 197.371 28.9742L197.582 28.7542L197.794 28.5341C197.637 28.3834 197.439 28.2632 197.211 28.1676L197.093 28.4491ZM197.582 28.7542L197.369 28.9722C197.574 29.1734 197.842 29.5293 198.175 30.0587L198.433 29.8963L198.692 29.7339C198.353 29.1945 198.054 28.789 197.796 28.5361L197.582 28.7542ZM198.433 29.8963L198.174 30.0576L198.877 31.1855L199.136 31.0242L199.395 30.8629L198.693 29.735L198.433 29.8963ZM199.136 31.0242V30.719H198.001V31.0242V31.3294H199.136V31.0242ZM198.001 31.0242L198.267 30.8746L197.756 29.9666L197.49 30.1162L197.224 30.2658L197.735 31.1738L198.001 31.0242ZM197.49 30.1162L197.756 29.9665C197.552 29.6036 197.364 29.3025 197.193 29.0663C197.024 28.8344 196.86 28.6471 196.698 28.529L196.518 28.7754L196.338 29.0219C196.422 29.0835 196.542 29.2095 196.698 29.4245C196.851 29.6352 197.026 29.9146 197.224 30.2659L197.49 30.1162ZM196.518 28.7754L196.705 28.5345C196.46 28.3439 196.134 28.2716 195.773 28.2716V28.5768V28.882C196.065 28.882 196.235 28.9422 196.331 29.0164L196.518 28.7754ZM195.773 28.5768V28.2716H195.227V28.5768V28.882H195.773V28.5768ZM195.227 28.5768H194.922V31.0242H195.227H195.532V28.5768H195.227ZM195.227 31.0242V30.719H194.298V31.0242V31.3294H195.227V31.0242ZM195.227 27.7823V28.0875H196.355V27.7823V27.4771H195.227V27.7823ZM196.355 27.7823V28.0875C196.638 28.0875 196.888 28.0666 197.1 28.0201C197.309 27.9742 197.501 27.899 197.649 27.776L197.454 27.5411L197.26 27.3062C197.214 27.344 197.126 27.3894 196.969 27.4239C196.814 27.4578 196.611 27.4771 196.355 27.4771V27.7823ZM197.454 27.5411L197.646 27.7783C197.92 27.5572 198.058 27.2557 198.058 26.9026H197.752H197.447C197.447 27.0793 197.386 27.2034 197.262 27.3039L197.454 27.5411ZM197.752 26.9026H198.058C198.058 26.6719 197.992 26.4579 197.859 26.2712L197.611 26.4486L197.362 26.626C197.418 26.7042 197.447 26.7929 197.447 26.9026H197.752ZM197.611 26.4486L197.862 26.2754C197.729 26.0831 197.545 25.9453 197.324 25.8591L197.213 26.1436L197.103 26.4281C197.222 26.4744 197.303 26.5399 197.359 26.6219L197.611 26.4486ZM197.213 26.1436L197.327 25.8602C197.1 25.7695 196.735 25.7391 196.284 25.7391V26.0443V26.3495C196.741 26.3495 196.996 26.3853 197.1 26.427L197.213 26.1436ZM196.284 26.0443V25.7391H195.227V26.0443V26.3495H196.284V26.0443ZM195.227 26.0443H194.922V27.7823H195.227H195.532V26.0443H195.227Z" fill="#FEFEFE"/>
</svg>
