<svg width="24" height="24" viewBox="0 0 24 24" fill="none" xmlns="http://www.w3.org/2000/svg">
<g clip-path="url(#clip0_425_5173)">
<path d="M10.6951 9.88916C10.1359 9.88916 9.68262 10.3424 9.68262 10.9017V18.6201C9.68262 19.1793 10.1359 19.6326 10.6951 19.6326C11.2543 19.6326 11.7076 19.1793 11.7076 18.6201V10.9017C11.7076 10.3424 11.2543 9.88916 10.6951 9.88916Z" fill="#5D5D5D" fill-opacity="0.835294"/>
<path d="M6.23906 11.9243C5.67984 11.9243 5.22656 12.3776 5.22656 12.9368V18.6204C5.22656 19.1796 5.67984 19.6329 6.23906 19.6329C6.79828 19.6329 7.25156 19.1796 7.25156 18.6204V12.9368C7.25156 12.3776 6.79828 11.9243 6.23906 11.9243Z" fill="#5D5D5D" fill-opacity="0.835294"/>
<path d="M5.39578 9.9346C5.61657 9.9346 5.83875 9.86288 6.02531 9.71476L9.61313 6.86241C9.75328 6.75085 9.94922 6.75085 10.0894 6.86241L12.7931 9.01163C13.6772 9.71429 14.9513 9.70304 15.8227 8.98491L19.2488 6.16069C19.6805 5.80491 19.7419 5.16694 19.3861 4.73522C19.0303 4.30397 18.3923 4.2421 17.9606 4.59788L14.5345 7.4221C14.3963 7.53647 14.1938 7.53835 14.0531 7.42632L11.3494 5.2771C10.4672 4.57585 9.23485 4.57585 8.35266 5.2771L4.76485 8.12944C4.32703 8.47725 4.25438 9.11429 4.60219 9.5521C4.80188 9.80382 5.09719 9.9346 5.39531 9.9346H5.39578Z" fill="#5D5D5D"/>
<path d="M15.1512 11.9243C14.592 11.9243 14.1387 12.3776 14.1387 12.9368V18.6204C14.1387 19.1796 14.592 19.6329 15.1512 19.6329C15.7104 19.6329 16.1637 19.1796 16.1637 18.6204V12.9368C16.1637 12.3776 15.7104 11.9243 15.1512 11.9243Z" fill="#5D5D5D" fill-opacity="0.835294"/>
<path d="M0.371133 18.9731C0.499102 20.0746 1.05738 21.1692 1.94426 22.0556C2.83066 22.942 3.92566 23.5007 5.02676 23.6287C5.02957 23.6287 5.03191 23.6292 5.03473 23.6296C7.34566 23.8767 9.67254 23.9999 11.9999 23.9999C14.3272 23.9999 16.6541 23.8767 18.965 23.6296C18.9679 23.6296 18.9702 23.6292 18.973 23.6287C20.0746 23.5007 21.1691 22.9424 22.056 22.0556C22.9424 21.1692 23.5011 20.0742 23.6291 18.9726L23.63 18.9646C24.1236 14.3428 24.1236 9.65619 23.63 5.03479L23.6291 5.02682C23.5011 3.92525 22.9429 2.83072 22.056 1.94385C21.1696 1.05744 20.0746 0.498691 18.973 0.370723C18.9702 0.370723 18.9679 0.370254 18.965 0.369785C14.3432 -0.12334 9.6566 -0.12334 5.03473 0.370254C5.03191 0.370254 5.02957 0.370723 5.02676 0.371191C3.9252 0.49916 2.83066 1.05744 1.94379 1.94432C1.05738 2.83072 0.499102 3.92525 0.371133 5.02682C0.371133 5.02963 0.370664 5.03197 0.370195 5.03479C-0.123398 9.65619 -0.123398 14.3432 0.370195 18.9646C0.370195 18.9674 0.370664 18.9698 0.371133 18.9726V18.9731ZM2.1416 5.22885C2.31176 3.78182 3.78129 2.31182 5.22879 2.14166C9.72223 1.66166 14.278 1.66166 18.7714 2.14166C20.2189 2.31182 21.6885 3.78135 21.8586 5.22885C22.3386 9.72182 22.3382 14.2781 21.8586 18.771C21.6889 20.2185 20.2189 21.6881 18.7714 21.8587C14.278 22.3387 9.72223 22.3387 5.22879 21.8587C3.78129 21.6885 2.31176 20.2185 2.1416 18.7715C1.66207 14.2785 1.66207 9.72229 2.1416 5.22932V5.22885Z" fill="#5D5D5D"/>
</g>
<defs>
<clipPath id="clip0_425_5173">
<rect width="24" height="24" fill="white"/>
</clipPath>
</defs>
</svg>
