<svg width="120" height="120" viewBox="0 0 120 120" fill="none" xmlns="http://www.w3.org/2000/svg">
<path d="M60 120C93.1371 120 120 93.1371 120 60C120 26.8629 93.1371 0 60 0C26.8629 0 0 26.8629 0 60C0 93.1371 26.8629 120 60 120Z" fill="#EEF3FF"/>
<path d="M60.0017 98.7095C81.3804 98.7095 98.7113 81.3786 98.7113 59.9998C98.7113 38.6211 81.3804 21.2902 60.0017 21.2902C38.6229 21.2902 21.292 38.6211 21.292 59.9998C21.292 81.3786 38.6229 98.7095 60.0017 98.7095Z" fill="#2E5DFC"/>
<path d="M55.8786 64.0259C60.0389 56.5056 65.9129 51.0734 73.8531 47.9631C65.9893 54.6254 59.904 63.1371 56.1441 72.7334C55.9536 72.4334 55.7962 72.1866 55.6454 71.9391C53.3062 68.0886 50.7336 64.4241 47.2536 61.4901C46.9415 61.2629 46.7196 60.9328 46.627 60.5579C46.5344 60.1831 46.577 59.7876 46.7474 59.4411C46.9601 58.8682 47.3138 58.3582 47.776 57.9584C48.2381 57.5585 48.7936 57.2817 49.3912 57.1536C49.6767 57.1352 49.9627 57.1797 50.2291 57.2842C50.4955 57.3887 50.7356 57.5505 50.9324 57.7581C52.4324 59.4726 53.8357 61.2741 55.2629 63.0524C55.485 63.3659 55.6906 63.6908 55.8786 64.0259Z" fill="#F6F6F6"/>
</svg>
