<svg width="53" height="73" viewBox="0 0 53 73" fill="none" xmlns="http://www.w3.org/2000/svg">
<path d="M35.2722 0.101074V11.9312H35.3738C35.4909 11.9312 35.6102 11.9268 35.6892 11.9263C35.7773 11.9257 35.8377 11.9289 35.8806 11.9399C35.9192 11.9499 35.9356 11.9637 35.946 11.981C35.9595 12.0035 35.9724 12.047 35.9724 12.1323V27.7036H36.8718V42.061H37.9705V72.8979H35.2761C35.2756 69.9768 35.251 67.1266 35.2263 64.2837C35.2013 61.4077 35.1765 58.5384 35.1765 55.6089V38.2192C35.1765 36.7084 35.1507 35.2753 35.1257 33.8501C35.1007 32.4246 35.0759 31.0064 35.0759 29.5239V0.101074H35.2722Z" fill="black" stroke="black" stroke-width="0.203478"/>
<path d="M40.1692 3.6402V11.8297H40.8684V24.772H41.468V39.1295H42.967V67.8433H40.3713C40.2853 67.8433 40.2416 67.8237 40.218 67.8033C40.194 67.7825 40.1754 67.7473 40.1643 67.6861C40.1531 67.6241 40.1523 67.5464 40.1555 67.4517C40.1586 67.3619 40.1655 67.2506 40.1672 67.1431C40.2463 62.1204 40.0735 57.0639 40.0735 52.0709L39.9729 3.6402H40.1692Z" fill="black" stroke="black" stroke-width="0.203478"/>
<path d="M30.2788 3.33624V14.054H30.978V28.512H31.5776V44.5892H32.9771V70.0667H30.2827V44.5892H30.5825V37.5101H30.0825V3.33624H30.2788Z" fill="black" stroke="black" stroke-width="0.203478"/>
<path d="M45.0615 12.6389H45.1641C45.2815 12.6389 45.3991 12.6346 45.4785 12.634C45.5665 12.6334 45.627 12.6367 45.6699 12.6477C45.7083 12.6576 45.725 12.6706 45.7354 12.6877C45.7488 12.7102 45.7617 12.7541 45.7617 12.8401V24.7708H46.3613V39.4319H46.4629C46.7611 39.4319 47.0234 39.4209 47.2471 39.4124C47.4726 39.4037 47.6557 39.3975 47.8008 39.4055C47.9488 39.4137 48.039 39.4364 48.0908 39.4709C48.1319 39.4985 48.1592 39.5411 48.1592 39.634V62.4836H45.3652V57.8323H44.9658V33.6692C44.9658 32.3763 44.9952 29.4456 44.999 26.6008C45.0028 23.775 44.9814 21.0328 44.8809 20.1057L44.8652 8.18872L44.8506 7.56665C44.8464 7.40583 44.8478 7.30247 44.8623 7.23169C44.8753 7.16854 44.8962 7.14424 44.9268 7.1272C44.9549 7.1116 44.9968 7.10086 45.0615 7.09106V12.6389Z" fill="black" stroke="black" stroke-width="0.203478"/>
<path d="M25.1938 8.11963C25.231 8.12867 25.2449 8.13558 25.2515 8.14014C25.252 8.14053 25.2749 8.14887 25.2749 8.29053V14.7622H25.9751V29.8276H26.3745V44.7915H27.8735V65.4155C27.0599 65.4168 26.4667 65.4333 26.0425 65.437C25.8205 65.439 25.6451 65.4373 25.5063 65.4292C25.3666 65.421 25.2704 65.4063 25.2036 65.3843C25.1392 65.363 25.109 65.3371 25.0913 65.3101C25.072 65.2803 25.0587 65.2349 25.0542 65.1577C25.0497 65.0801 25.0541 64.9834 25.061 64.8569C25.0679 64.7323 25.077 64.5832 25.0786 64.4077V44.7778C25.1745 44.7661 25.2576 44.7516 25.3228 44.7153C25.4206 44.6607 25.4665 44.5738 25.4858 44.4644C25.5038 44.3624 25.5012 44.2266 25.4956 44.0562C25.4898 43.8816 25.4799 43.6602 25.479 43.3745V31.5444H25.1792V8.11572C25.1846 8.11695 25.1894 8.11855 25.1938 8.11963Z" fill="black" stroke="black" stroke-width="0.203478"/>
<path d="M50.8584 13.9527V24.6705H51.7578V40.4439H52.8574V57.6314C52.8574 57.7439 52.8387 57.7825 52.8232 57.7984C52.808 57.8138 52.7705 57.8325 52.6592 57.8326H50.0625V13.9527H50.8584Z" fill="black" stroke="black" stroke-width="0.203478"/>
<path d="M20.2876 13.0432V14.762H20.7866V26.0862H21.5864V44.387H23.0854V60.6643H20.1909V13.0432H20.2876Z" fill="black" stroke="black" stroke-width="0.203478"/>
<path d="M11.4871 37.6131H13.1863V50.2508H9.99194V23.326C10.0822 23.2873 10.1805 23.2243 10.28 23.1502C10.4108 23.053 10.556 22.9294 10.7068 22.7977C10.9589 22.5774 11.2286 22.3361 11.4871 22.1414V37.6131Z" fill="black" stroke="black" stroke-width="0.203478"/>
<path d="M15.0911 18.8028C15.0879 18.5325 15.0569 18.2511 15.1458 17.9932C15.2217 17.7731 15.3913 17.5639 15.7893 17.4278V23.7608H16.1887V40.6456H17.3879V55.4073C17.3879 55.4558 17.3769 55.4887 17.3616 55.5128C17.346 55.537 17.3206 55.5601 17.2795 55.5801C17.193 55.6223 17.0542 55.6437 16.8547 55.6495C16.6582 55.6551 16.4182 55.6456 16.137 55.6339C15.8569 55.6221 15.5383 55.6085 15.1907 55.6085C15.1537 55.6084 15.1266 55.5972 15.1038 55.5772C15.0789 55.5553 15.0544 55.5183 15.0325 55.461C14.9878 55.344 14.966 55.1696 14.9592 54.9532C14.9526 54.7392 14.9607 54.4947 14.9709 54.2413C14.9811 53.9891 14.9934 53.728 14.9934 53.4864L15.0911 18.8047V18.8028Z" fill="black" stroke="black" stroke-width="0.203478"/>
<path d="M6.69165 27.3152C6.694 28.6781 6.71674 29.9768 6.74048 31.2673C6.76549 32.627 6.79028 33.9779 6.79028 35.3875V35.489H7.78931V45.0935H5.09497V36.197C5.09497 35.5408 5.12067 34.9744 5.14575 34.4128C5.17082 33.8516 5.19583 33.2938 5.19556 32.657C5.19501 31.4474 5.16473 30.2101 5.18677 29.0105C5.19385 28.6331 5.26175 28.5054 5.35767 28.4148C5.41264 28.3628 5.47906 28.3204 5.57251 28.2566C5.66228 28.1953 5.76605 28.1183 5.88306 28.0066L5.88403 28.0076L6.69165 27.3152Z" fill="black" stroke="black" stroke-width="0.203478"/>
<path d="M1.59766 35.49H2.7959V40.24H0.202148V35.8933C0.202148 35.4296 0.176387 35.0703 0.151367 34.7166C0.127308 34.3764 0.103336 34.0411 0.101562 33.6179C0.320083 33.4595 0.626348 33.1758 0.916992 32.9216C1.07513 32.7834 1.23118 32.6527 1.37305 32.5496C1.45638 32.489 1.53216 32.4407 1.59766 32.406V35.49Z" fill="black" stroke="black" stroke-width="0.203478"/>
</svg>
